<?xml version="1.0" encoding="UTF-8"?>
<svg xmlns="http://www.w3.org/2000/svg" xmlns:xlink="http://www.w3.org/1999/xlink" width="30pt" height="30.000001pt" viewBox="0 0 30 30.000001" version="1.2">
<defs>
<clipPath id="clip1">
  <path d="M 0.484375 0 L 29.515625 0 L 29.515625 29.03125 L 0.484375 29.03125 Z M 0.484375 0 "/>
</clipPath>
</defs>
<g id="surface1">
<g clip-path="url(#clip1)" clip-rule="nonzero">
<path style=" stroke:none;fill-rule:nonzero;fill:rgb(25.878906%,64.709473%,96.078491%);fill-opacity:1;" d="M 15 0 L 17.96875 3.300781 L 22.257812 1.980469 L 23.246094 6.269531 L 27.535156 7.257812 L 26.21875 11.546875 L 29.515625 14.515625 L 26.21875 17.484375 L 27.535156 21.773438 L 23.246094 22.765625 L 22.257812 27.054688 L 17.96875 25.734375 L 15 29.03125 L 12.03125 25.734375 L 7.742188 27.054688 L 6.753906 22.765625 L 2.464844 21.773438 L 3.78125 17.484375 L 0.484375 14.515625 L 3.78125 11.546875 L 2.464844 7.257812 L 6.753906 6.269531 L 7.742188 1.980469 L 12.03125 3.300781 Z M 15 0 "/>
</g>
<path style=" stroke:none;fill-rule:nonzero;fill:rgb(89.019775%,94.898987%,99.21875%);fill-opacity:1;" d="M 21.992188 8.3125 L 13.019531 17.289062 L 9.324219 13.59375 L 7.476562 15.441406 L 13.019531 20.980469 L 23.839844 10.160156 Z M 21.992188 8.3125 "/>
</g>
</svg>
